<?xml version="1.0" standalone="no"?>
<!DOCTYPE svg PUBLIC "-//W3C//DTD SVG 20010904//EN"
 "http://www.w3.org/TR/2001/REC-SVG-20010904/DTD/svg10.dtd">
<svg version="1.0" xmlns="http://www.w3.org/2000/svg"
 width="700.000000pt" height="700.000000pt" viewBox="0 0 700.000000 700.000000"
 preserveAspectRatio="xMidYMid meet">
<metadata>
Created by potrace 1.11, written by Peter Selinger 2001-2013
</metadata>
<g transform="translate(0.000000,700.000000) scale(0.100000,-0.100000)"
fill="#000000" stroke="none">
<path d="M1530 6603 c-34 -14 -79 -56 -91 -85 -10 -26 -13 -197 -13 -843 0
-722 2 -813 16 -840 14 -26 83 -94 282 -280 18 -16 91 -85 162 -152 71 -67
140 -130 153 -140 21 -17 24 -28 24 -89 0 -82 -13 -484 -18 -534 -2 -19 -6
-82 -10 -140 -4 -58 -8 -121 -10 -140 -2 -19 -6 -69 -10 -110 -3 -41 -8 -88
-10 -105 -3 -27 -13 -119 -20 -185 -1 -14 -5 -43 -8 -65 -4 -22 -9 -60 -12
-85 -4 -25 -8 -56 -10 -70 -3 -14 -7 -46 -9 -73 -3 -26 -10 -73 -15 -105 -6
-31 -13 -73 -16 -92 -3 -19 -10 -57 -15 -85 -5 -27 -11 -66 -14 -86 -3 -20 -7
-42 -10 -50 -3 -8 -7 -32 -10 -54 -16 -130 -136 -642 -209 -893 l-24 -82 171
0 c252 -1 3539 -1 3554 0 7 0 11 4 8 8 -5 8 -50 168 -77 272 -5 19 -11 42 -14
50 -33 122 -144 630 -160 735 -5 39 -41 254 -50 305 -3 14 -8 49 -11 79 -3 30
-7 62 -9 72 -4 22 -15 96 -19 129 -2 14 -6 50 -10 80 -9 67 -14 115 -21 200
-3 36 -7 81 -10 100 -5 36 -11 111 -20 260 -4 47 -8 103 -10 125 -5 56 -18
444 -18 534 1 72 2 75 34 104 19 16 88 79 153 140 66 62 134 126 151 142 191
176 269 254 283 280 14 27 16 116 16 835 0 443 -3 816 -7 830 -9 34 -55 84
-93 99 -22 9 -111 11 -331 9 -289 -3 -303 -4 -330 -24 -15 -12 -37 -36 -48
-55 -18 -32 -20 -54 -21 -319 -1 -157 -2 -294 -3 -305 -1 -20 -7 -20 -303 -19
-167 1 -306 2 -309 3 -4 1 -6 135 -7 299 0 300 -3 328 -38 368 -49 54 -44 54
-572 54 -269 0 -504 -3 -521 -6 -43 -9 -99 -67 -107 -112 -4 -20 -7 -165 -8
-321 l-1 -285 -308 0 c-169 -1 -307 1 -308 4 -1 3 -2 140 -3 305 -2 279 -3
303 -21 334 -11 19 -33 43 -48 55 -27 20 -41 21 -335 23 -169 1 -314 -1 -322
-4z m2099 -2504 c135 -47 233 -151 271 -289 10 -33 13 -166 14 -487 1 -436 1
-443 -19 -444 -90 -4 -794 -1 -801 4 -15 9 -10 874 5 927 52 185 212 308 400
308 47 0 95 -7 130 -19z"/>
<path d="M1105 996 c-85 -38 -97 -80 -93 -321 3 -204 6 -214 78 -262 l33 -23
2369 0 c2630 0 2412 -6 2467 70 l29 41 2 187 c1 202 -5 236 -52 279 -12 12
-36 26 -51 32 -20 8 -741 11 -2390 11 -1956 -1 -2367 -3 -2392 -14z"/>
</g>
</svg>
