<svg width="540" height="540" xmlns="http://www.w3.org/2000/svg" class="svg-inline--fa fa-chess-rook fa-w-12">

 <g>
  <title>background</title>
  <rect fill="none" id="canvas_background" height="542" width="542" y="-1" x="-1"/>
 </g>
 <g>
  <title>Layer 1</title>
  <path id="svg_1" d="m159.241,213.027c-0.284,43.893 -3.83,133.049 -33.241,232.973l287.982,0c-29.4,-99.604 -32.936,-188.912 -33.221,-232.975l45.418,-42.312a11.998,11.998 0 0 0 3.82,-8.78l0,-119.933c0,-6.627 -5.373,-12 -12,-12l-40,0c-6.627,0 -12,5.373 -12,12l0,44l-48,0l0,-44c0,-6.627 -5.373,-12 -12,-12l-72,0c-6.627,0 -12,5.373 -12,12l0,44l-47.999,0l0,-44c0,-6.627 -5.373,-12 -12,-12l-40,0c-6.627,0 -12,5.373 -12,12l0,119.932c0,3.33 1.384,6.51 3.82,8.78l45.421,42.315zm78.759,40.973c0,-17.673 14.327,-32 32,-32c17.673,0 32,14.327 32,32l0,64.004l-64,0l0,-64.004zm224,220l0,24c0,6.627 -5.373,12 -12,12l-360,0c-6.627,0 -12,-5.373 -12,-12l0,-24c0,-6.627 5.373,-12 12,-12l360,0c6.627,0 12,5.373 12,12z" fill="#000000"/>
 </g>
</svg>
